<svg height="72" width="181" id="Layer_1" xmlns="http://www.w3.org/2000/svg" viewBox="0 0 1200 473.75"><defs><style>.cls-1{fill:#9f8a46;}</style></defs><g><path class="cls-1" d="M1090.66,52.68h-12.7V4.4h-27.45l-34.35,48.19v15.35h45.33v12.67h16.47v-12.67h12.7v-15.27Zm-29.18,0h-27.44l.14-.19,26.9-37.51h.4V52.68Z"/><path class="cls-1" d="M927.88,77.32c5.03,3.27,11.34,4.93,18.75,4.93,10.65,0,18.81-3.6,24.26-10.71,5.49-7.16,8.28-17.92,8.28-31.98,0-23.39-12.46-36.8-34.18-36.8-18.66,0-32.21,11.16-32.21,26.53,0,7.5,2.91,13.94,8.42,18.64,5.55,4.73,13.21,7.23,22.15,7.23,8.15,0,14.56-2.05,19.03-6.09l.04-.03h.39v.13c-.89,12.61-6.33,19.01-16.18,19.01-7.49,0-11.67-2.67-14.41-9.22l-14.98,4.52c2.15,5.99,5.73,10.65,10.64,13.84Zm17.54-35.24c-10.41,0-16.61-4.74-16.61-12.68s6.17-12.68,16.5-12.68c9.47,0,16.61,5.5,16.61,12.79,0,7.87-6.17,12.57-16.5,12.57Z"/><polygon class="cls-1" points="868.57 80.61 868.57 4.4 853.43 4.4 830.83 16.36 830.83 33.55 852.09 22.21 852.09 80.61 868.57 80.61"/><g><path class="cls-1" d="M1130.69,22.27c-.32,.65-.62,1.31-.91,1.98,.29-.67,.59-1.33,.91-1.98Z"/><path class="cls-1" d="M1134.86,15.67c-.57,.72-1.11,1.46-1.63,2.23,.52-.77,1.06-1.51,1.63-2.23Z"/><path class="cls-1" d="M1126.2,46.35c.05,.89,.11,1.76,.2,2.62-.09-.86-.15-1.74-.2-2.62Z"/><path class="cls-1" d="M1182.73,7.89c-5.37-3.36-12.19-5.13-19.73-5.13-10.73,0-19.93,3.88-26.59,11.22-6.67,7.34-10.2,17.47-10.2,29.28s3.44,21.76,9.95,28.56c6.53,6.81,16.04,10.42,27.5,10.42,9.33,0,17.34-2.53,23.17-7.3,5.81-4.75,8.88-11.25,8.88-18.79,0-15.18-12.65-26.2-30.08-26.2-9.08,0-17.06,2.69-21.87,7.39l-.04,.04h-.29l.02-.13c1.31-13.17,8.45-20.42,20.1-20.42,7.36,0,12.83,3.27,15.39,9.23l15.17-4.09c-2.16-5.9-6.1-10.77-11.38-14.07Zm-19.18,34.6c5.22,0,9.27,1.17,12.05,3.48,2.7,2.25,4.07,5.45,4.07,9.53s-1.38,7.13-4.11,9.32c-2.78,2.23-6.82,3.36-12.01,3.36s-9.77-1.24-13.11-3.48c-3.43-2.3-5.31-5.57-5.31-9.2,0-7.66,7.58-13.01,18.42-13.01Z"/><path class="cls-1" d="M1126.39,37.7c-.08,.81-.14,1.63-.19,2.46,.05-.83,.11-1.65,.19-2.46Z"/><path class="cls-1" d="M1127.88,29.67c-.18,.67-.35,1.35-.51,2.04,.16-.69,.32-1.37,.51-2.04Z"/><path class="cls-1" d="M1132.9,67.96c.57,.83,1.17,1.62,1.81,2.38-.64-.76-1.24-1.56-1.81-2.38Z"/><path class="cls-1" d="M1143.29,77.46c.9,.51,1.82,.98,2.79,1.41-.96-.43-1.89-.9-2.79-1.41Z"/><path class="cls-1" d="M1150.12,80.4c.95,.29,1.92,.56,2.92,.78-1-.23-1.97-.49-2.92-.78Z"/><path class="cls-1" d="M1129.44,61.54c.4,.97,.84,1.92,1.31,2.83-.47-.91-.91-1.86-1.31-2.83Z"/><path class="cls-1" d="M1137.55,73.3c.74,.68,1.52,1.32,2.32,1.92-.8-.6-1.58-1.25-2.32-1.92Z"/><path class="cls-1" d="M1127.22,54.31c.21,1,.45,1.98,.73,2.94-.27-.96-.51-1.94-.73-2.94Z"/><path class="cls-1" d="M1158.11,82.04c.85,.09,1.72,.17,2.61,.22-.88-.05-1.75-.12-2.61-.22Z"/></g></g><g><path class="cls-1" d="M10.58,393.58H30.43l27.92,54.71h.22l28.14-54.71h19.73v78.48h-17.04v-51.46h-.22l-27.14,51.46h-6.95l-27.13-51.46h-.22v51.46H10.58v-78.48Z"/><path class="cls-1" d="M155.04,393.58h17.16v47.54c0,12.11,6.17,17.6,18.39,17.6s18.38-5.49,18.38-17.49v-47.65h17.16v48.32c0,20.97-12.78,31.84-35.54,31.84s-35.54-10.88-35.54-31.84v-48.32Z"/><path class="cls-1" d="M285.83,442.8c2.36,11.32,8.97,16.48,21.19,16.48,9.98,0,15.69-3.14,15.69-8.86,0-5.38-4.26-8.19-21.64-12-21.53-4.82-30.16-11.77-30.16-23.55,0-12.78,12.56-22.87,31.06-22.87,8.97,0,16.59,2.13,22.98,6.39,6.39,4.15,10.42,9.87,12.22,17.15l-16.59,3.92c-2.58-8.52-8.97-12.89-18.73-12.89-8.07,0-13.79,3.36-13.79,8.19,0,4.03,3.7,6.05,21.19,9.87,21.08,4.6,30.61,12.33,30.61,25.68,0,14.24-12.89,23.43-32.96,23.43-21.08,0-34.87-9.98-37.89-27.58l16.82-3.36Z"/><path class="cls-1" d="M383.33,393.58h17.16v78.48h-17.16v-78.48Z"/><path class="cls-1" d="M486.45,391.9c9.53,0,17.6,2.47,24.22,7.4,6.73,4.82,10.99,11.44,12.89,19.85l-16.14,4.04c-2.8-10.31-10.54-16.26-20.97-16.26-14.24,0-24.11,10.54-24.11,25.9s9.87,25.9,24.11,25.9c11.1,0,19.06-6.5,21.19-17.71l16.26,3.81c-3.14,17.83-17.94,28.93-37.45,28.93-23.54,.34-41.6-17.49-41.26-40.92-.34-23.43,17.71-41.26,41.26-40.93Z"/></g><g><path class="cls-1" d="M1000.25,391.9c9.53,0,17.6,2.47,24.22,7.4,6.73,4.82,10.99,11.43,12.89,19.84l-16.14,4.04c-2.8-10.32-10.54-16.26-20.97-16.26-14.24,0-24.11,10.54-24.11,25.9s9.87,25.9,24.11,25.9c11.1,0,19.06-6.5,21.19-17.71l16.26,3.81c-3.14,17.83-17.94,28.93-37.45,28.93-23.54,.34-41.59-17.49-41.26-40.92-.34-23.43,17.71-41.26,41.26-40.92Z"/><path class="cls-1" d="M1117.92,391.9c23.55-.34,41.59,17.49,41.26,40.92,.33,23.43-17.71,41.26-41.26,40.92-23.54,.34-41.59-17.49-41.26-40.92-.34-23.43,17.71-41.26,41.26-40.92Zm0,15.02c-14.24,0-24.11,10.54-24.11,25.9s9.87,25.9,24.11,25.9,24.11-10.54,24.11-25.9-9.86-25.9-24.11-25.9Z"/><path class="cls-1" d="M1181.5,454.12h18.5v17.94h-18.5v-17.94Z"/></g><g><path class="cls-1" d="M162.42,155.09h52.84c.67,0,1.24,.47,1.36,1.13l15.45,81.74c.28,1.5,2.43,1.51,2.72,0l16.04-81.76c.13-.65,.7-1.12,1.36-1.12h51.11c.65,0,1.21,.45,1.35,1.08l18.61,82.47c.34,1.49,2.48,1.42,2.72-.09l13.1-82.3c.11-.67,.69-1.17,1.37-1.17h51.53c.89,0,1.54,.82,1.35,1.69l-35.55,163.77c-.14,.63-.7,1.09-1.35,1.09h-56.29c-.65,0-1.21-.45-1.35-1.08l-20.26-90.97c-.33-1.47-2.43-1.44-2.71,.04l-17.66,90.9c-.13,.65-.7,1.12-1.36,1.12h-56.71c-.65,0-1.21-.45-1.35-1.08l-37.66-163.77c-.2-.87,.46-1.7,1.35-1.7Z"/><path class="cls-1" d="M407.06,155.09h131.35c.77,0,1.39,.62,1.39,1.39v42.41c0,.77-.62,1.39-1.39,1.39h-73.26c-.77,0-1.39,.62-1.39,1.39v16.32c0,.77,.62,1.39,1.39,1.39h64.65c.77,0,1.39,.62,1.39,1.39v32.28c0,.77-.62,1.39-1.39,1.39h-64.65c-.77,0-1.39,.62-1.39,1.39v19.26c0,.77,.62,1.39,1.39,1.39h74.55c.77,0,1.39,.62,1.39,1.39v42.41c0,.77-.62,1.39-1.39,1.39h-132.65c-.77,0-1.39-.62-1.39-1.39V156.47c0-.77,.62-1.39,1.39-1.39Z"/><path class="cls-1" d="M557.94,155.09h130.79c.77,0,1.39,.62,1.39,1.39v42.41c0,.77-.62,1.39-1.39,1.39h-72.69c-.77,0-1.39,.62-1.39,1.39v16.32c0,.77,.62,1.39,1.39,1.39h67.1c.77,0,1.39,.62,1.39,1.39v32.28c0,.77-.62,1.39-1.39,1.39h-67.1c-.77,0-1.39,.62-1.39,1.39v19.26c0,.77,.62,1.39,1.39,1.39h77.37c.77,0,1.39,.62,1.39,1.39v42.41c0,.77-.62,1.39-1.39,1.39h-135.47c-.77,0-1.39-.62-1.39-1.39V156.47c0-.77,.62-1.39,1.39-1.39Z"/><path class="cls-1" d="M910.55,155.09h130.76c.77,0,1.39,.62,1.39,1.39v42.41c0,.77-.62,1.39-1.39,1.39h-72.66c-.77,0-1.39,.62-1.39,1.39v16.32c0,.77,.62,1.39,1.39,1.39h64.65c.77,0,1.39,.62,1.39,1.39v32.28c0,.77-.62,1.39-1.39,1.39h-64.65c-.77,0-1.39,.62-1.39,1.39v19.26c0,.77,.62,1.39,1.39,1.39h76.99c.77,0,1.39,.62,1.39,1.39v42.41c0,.77-.62,1.39-1.39,1.39h-135.09c-.77,0-1.39-.62-1.39-1.39V156.47c0-.77,.62-1.39,1.39-1.39Z"/><path class="cls-1" d="M1061.37,155.09h130.79c.77,0,1.39,.62,1.39,1.39v42.41c0,.77-.62,1.39-1.39,1.39h-72.69c-.77,0-1.39,.62-1.39,1.39v16.32c0,.77,.62,1.39,1.39,1.39h67.1c.77,0,1.39,.62,1.39,1.39v32.28c0,.77-.62,1.39-1.39,1.39h-67.1c-.77,0-1.39,.62-1.39,1.39v19.26c0,.77,.62,1.39,1.39,1.39h74.85c.77,0,1.39,.62,1.39,1.39v42.41c0,.77-.62,1.39-1.39,1.39h-132.94c-.77,0-1.39-.62-1.39-1.39V156.47c0-.77,.62-1.39,1.39-1.39Z"/><path class="cls-1" d="M765.04,152.83h55.32c.77,0,1.39,.62,1.39,1.39v117.19c0,.77,.62,1.39,1.39,1.39h70.6c.77,0,1.39,.62,1.39,1.39v46.07c0,.77-.62,1.39-1.39,1.39h-128.7c-.77,0-1.39-.62-1.39-1.39V154.21c0-.77,.62-1.39,1.39-1.39Z"/><path class="cls-1" d="M157.79,246.79c-2.16-5.94-5.33-10.94-9.51-15-2.54-2.46-5.48-4.6-8.84-6.41-3.36-1.81-7.12-3.37-11.3-4.68-4.03-1.3-8.47-2.39-13.32-3.26-4.85-.87-11.75-1.81-20.7-2.83-11.49-1.3-18.8-2.72-21.94-4.24-3.13-1.52-4.7-3.66-4.7-6.41,0-3.19,1.31-5.62,3.92-7.29,2.61-1.67,6.3-2.5,11.08-2.5,6.42,0,11.45,1.27,15.11,3.81,3.25,2.25,7.76,5.74,9.99,10.45,.46,.98,1.63,1.44,2.68,1.07l44.67-15.79c1.15-.41,1.74-1.67,1.28-2.77-5.07-12.07-13.07-21.58-24.03-28.52-13.28-8.41-30.07-12.61-50.36-12.61-22.53,0-40.63,5.36-54.28,16.09-13.65,10.73-20.48,25-20.48,42.83,0,7.39,1.04,13.88,3.13,19.46,2.09,5.58,5.37,10.55,9.85,14.9,2.39,2.32,5.22,4.35,8.51,6.09,3.28,1.74,7.16,3.33,11.64,4.78,4.33,1.31,9.03,2.46,14.1,3.48,5.07,1.01,12.16,2.03,21.26,3.04,11.19,1.3,18.28,1.84,21.26,3.29,2.99,1.45,4.48,3.48,4.48,6.09,0,3.19-1.31,5.65-3.92,7.39-2.61,1.74-6.38,3.07-11.3,3.07-7.61,0-18.93-1.07-23.77-3.98-3.83-2.29-8.18-5.44-10.58-9.45-.36-.6-1.08-.89-1.75-.65L.96,283.58c-.77,.27-1.17,1.13-.85,1.87,4.98,11.57,13.19,20.72,24.79,27.34,14.1,8.05,37.65,12.07,60.48,12.07s41.71-5.18,55.29-15.55c13.58-10.36,20.37-24.61,20.37-42.73,0-7.25-1.08-13.84-3.25-19.79Z"/></g><g><path class="cls-1" d="M14.11,1.58h59.69v15.12H31.38v16.58h38.36v14.33H31.38v17.83h42.31v15.12H14.11V1.58Z"/><path class="cls-1" d="M131.07,51.11c2.37,11.39,9.03,16.58,21.33,16.58,10.04,0,15.79-3.16,15.79-8.91,0-5.42-4.28-8.24-21.77-12.07-21.66-4.85-30.35-11.85-30.35-23.69,0-12.86,12.63-23.02,31.25-23.02,9.02,0,16.7,2.14,23.13,6.43,6.43,4.18,10.49,9.93,12.3,17.26l-16.7,3.95c-2.6-8.58-9.03-12.98-18.85-12.98-8.12,0-13.88,3.38-13.88,8.24,0,4.06,3.72,6.09,21.32,9.93,21.21,4.63,30.8,12.41,30.8,25.84,0,14.33-12.98,23.58-33.17,23.58-21.21,0-35.09-10.04-38.13-27.75l16.92-3.38Z"/><path class="cls-1" d="M248.93,16.81h-28.1V1.58h73.45v15.23h-28.09v63.75h-17.26V16.81Z"/><path class="cls-1" d="M305.98,62.51h18.62v18.05h-18.62v-18.05Z"/></g></svg>